<svg width="119" height="104" viewBox="0 0 119 104" fill="none" xmlns="http://www.w3.org/2000/svg">
<g clip-path="url(#clip0_452_2955)">
<path d="M22.6621 0.63355C54.008 0.350465 85.3883 0.897507 116.746 0.897507C117.503 0.859253 118.525 0.870729 118.8 1.76206C117.759 14.2752 105.992 24.5389 93.5098 24.3362C62.776 24.1334 32.0421 24.1181 1.31212 23.8389C0.539375 23.8465 0.00763503 23.0279 0.187432 22.3087C1.55695 11.0924 11.4917 1.76971 22.6621 0.63355Z" fill="white"/>
<path d="M21.9044 41.0842C40.1748 40.4913 58.4912 41.176 76.7769 41.0804C77.6071 41.0689 78.7738 40.9503 79.0875 41.9564C78.1656 54.3357 66.8613 64.5382 54.5395 64.7409C37.145 64.6568 19.7353 64.5726 2.32943 64.5191C1.57582 64.4732 0.405222 64.5153 0.217773 63.5742C1.26978 52.3273 10.6996 42.5609 21.9044 41.0842Z" fill="white"/>
<path d="M1.43455 79.8283C5.4819 79.8512 9.5369 79.8053 13.5804 79.9048C18.5765 80.1611 22.9069 84.503 23.2053 89.4876C23.3239 93.6344 23.2168 97.7812 23.2397 101.928C23.2703 102.559 23.0293 103.343 22.3025 103.447C10.7611 102.314 0.864556 92.2649 0 80.6775C0.191274 80.0731 0.849255 79.8206 1.43455 79.8283Z" fill="white"/>
</g>
<defs>
<clipPath id="clip0_452_2955">
<rect width="118.8" height="102.894" fill="white" transform="translate(0 0.553223)"/>
</clipPath>
</defs>
</svg>
