<svg width="587" height="144" viewBox="0 0 587 144" fill="none" xmlns="http://www.w3.org/2000/svg">
<g clip-path="url(#clip0_452_2962)">
<path d="M22.6621 20.6335C54.008 20.3505 85.3883 20.8975 116.746 20.8975C117.503 20.8593 118.525 20.8707 118.8 21.7621C117.759 34.2752 105.992 44.5389 93.5098 44.3362C62.776 44.1334 32.0421 44.1181 1.31212 43.8389C0.539375 43.8465 0.00763503 43.0279 0.187432 42.3087C1.55695 31.0924 11.4917 21.7697 22.6621 20.6335Z" fill="#193CB8"/>
<path d="M21.9044 61.084C40.1748 60.491 58.4912 61.1758 76.7769 61.0802C77.6071 61.0687 78.7738 60.9501 79.0875 61.9562C78.1656 74.3354 66.8613 84.538 54.5395 84.7407C37.145 84.6565 19.7353 84.5724 2.32943 84.5188C1.57582 84.4729 0.405222 84.515 0.217773 83.5739C1.26978 72.3271 10.6996 62.5606 21.9044 61.084Z" fill="#193CB8"/>
<path d="M1.43455 99.828C5.4819 99.851 9.5369 99.8051 13.5804 99.9046C18.5765 100.161 22.9069 104.503 23.2053 109.487C23.3239 113.634 23.2168 117.781 23.2397 121.928C23.2703 122.559 23.0293 123.343 22.3025 123.447C10.7611 122.314 0.864556 112.265 0 100.677C0.191274 100.073 0.849255 99.8204 1.43455 99.828Z" fill="#193CB8"/>
</g>
<path d="M155.101 115V29.7728H209.439V42.5894H170.339V67.8091H206.072V80.2122H170.339V115H155.101ZM244.758 116.24C238.615 116.24 233.28 114.941 228.752 112.342C224.224 109.704 220.7 105.963 218.18 101.12C215.699 96.2378 214.459 90.43 214.459 83.6969V83.5788C214.459 76.885 215.719 71.1166 218.239 66.2734C220.759 61.3909 224.283 57.6503 228.811 55.0516C233.339 52.4134 238.635 51.0944 244.699 51.0944C250.802 51.0944 256.118 52.4134 260.646 55.0516C265.213 57.6503 268.757 61.3713 271.277 66.2144C273.797 71.0575 275.057 76.8456 275.057 83.5788V83.6969C275.057 90.4694 273.797 96.2969 271.277 101.179C268.796 106.023 265.292 109.743 260.764 112.342C256.236 114.941 250.9 116.24 244.758 116.24ZM244.817 104.369C247.928 104.369 250.625 103.562 252.909 101.947C255.192 100.333 256.944 97.99 258.165 94.9188C259.425 91.8081 260.055 88.0675 260.055 83.6969V83.5788C260.055 79.2475 259.425 75.5463 258.165 72.475C256.905 69.4038 255.114 67.0609 252.79 65.4466C250.507 63.8322 247.809 63.025 244.699 63.025C241.667 63.025 238.989 63.8322 236.666 65.4466C234.383 67.0609 232.591 69.4038 231.292 72.475C230.032 75.5463 229.402 79.2475 229.402 83.5788V83.6969C229.402 88.0675 230.032 91.8081 231.292 94.9188C232.591 97.99 234.383 100.333 236.666 101.947C238.989 103.562 241.706 104.369 244.817 104.369ZM305.829 116.24C301.222 116.24 297.304 115.315 294.075 113.464C290.886 111.574 288.444 108.877 286.751 105.373C285.058 101.868 284.212 97.7144 284.212 92.9106V52.3938H298.859V89.9575C298.859 94.4069 299.903 97.8522 301.989 100.293C304.076 102.695 307.226 103.896 311.439 103.896C313.526 103.896 315.416 103.542 317.109 102.833C318.842 102.085 320.319 101.042 321.539 99.7028C322.76 98.3641 323.685 96.7694 324.315 94.9188C324.945 93.0288 325.26 90.9419 325.26 88.6581V52.3938H339.967V115H325.26V105.196H324.965C323.862 107.401 322.425 109.35 320.653 111.043C318.881 112.697 316.755 113.976 314.274 114.882C311.794 115.787 308.979 116.24 305.829 116.24ZM352.074 115V52.3938H366.722V63.2022H367.076C368.021 59.4222 369.734 56.4691 372.215 54.3428C374.735 52.1772 377.806 51.0944 381.429 51.0944C382.334 51.0944 383.2 51.1534 384.027 51.2716C384.854 51.3897 385.543 51.5275 386.094 51.685V64.9741C385.504 64.7378 384.657 64.5409 383.555 64.3834C382.492 64.2259 381.33 64.1472 380.07 64.1472C377.314 64.1472 374.932 64.7181 372.924 65.86C370.915 66.9625 369.38 68.5966 368.317 70.7622C367.254 72.9278 366.722 75.5659 366.722 78.6766V115H352.074ZM394.068 115V29.7728H408.774V115H394.068ZM439.782 116.063C435.648 116.063 431.986 115.276 428.797 113.701C425.647 112.086 423.186 109.862 421.414 107.027C419.681 104.152 418.815 100.864 418.815 97.1631V97.045C418.815 93.3044 419.74 90.115 421.591 87.4769C423.481 84.7994 426.198 82.6928 429.742 81.1572C433.285 79.5822 437.577 78.6372 442.617 78.3222L466.538 76.8456V86.5909L444.684 87.9494C441.062 88.1856 438.286 89.0519 436.357 90.5481C434.427 92.0444 433.463 94.0328 433.463 96.5134V96.5725C433.463 99.1319 434.427 101.16 436.357 102.656C438.325 104.113 440.924 104.841 444.153 104.841C446.988 104.841 449.508 104.27 451.713 103.128C453.957 101.987 455.729 100.431 457.029 98.4625C458.328 96.4938 458.978 94.2691 458.978 91.7884V73.0066C458.978 69.8566 457.974 67.3759 455.965 65.5647C453.997 63.7141 451.142 62.7888 447.401 62.7888C443.936 62.7888 441.16 63.5369 439.074 65.0331C436.987 66.49 435.687 68.38 435.175 70.7031L435.057 71.2347H421.473L421.532 70.5259C421.847 66.8247 423.087 63.5172 425.253 60.6034C427.419 57.6503 430.411 55.3272 434.23 53.6341C438.089 51.9409 442.657 51.0944 447.933 51.0944C453.17 51.0944 457.698 51.9606 461.517 53.6931C465.376 55.4256 468.349 57.8472 470.436 60.9578C472.562 64.0684 473.625 67.7303 473.625 71.9434V115H458.978V105.373H458.623C457.442 107.538 455.906 109.428 454.016 111.043C452.126 112.657 449.961 113.898 447.519 114.764C445.118 115.63 442.539 116.063 439.782 116.063ZM485.556 115V52.3938H500.203V63.2022H500.558C501.503 59.4222 503.215 56.4691 505.696 54.3428C508.216 52.1772 511.287 51.0944 514.91 51.0944C515.815 51.0944 516.682 51.1534 517.509 51.2716C518.335 51.3897 519.024 51.5275 519.576 51.685V64.9741C518.985 64.7378 518.139 64.5409 517.036 64.3834C515.973 64.2259 514.811 64.1472 513.551 64.1472C510.795 64.1472 508.413 64.7181 506.405 65.86C504.397 66.9625 502.861 68.5966 501.798 70.7622C500.735 72.9278 500.203 75.5659 500.203 78.6766V115H485.556ZM537.531 135.79C536.113 135.79 534.715 135.711 533.337 135.554C531.999 135.436 530.876 135.298 529.971 135.14V123.977C530.522 124.056 531.211 124.155 532.038 124.273C532.865 124.391 533.81 124.45 534.873 124.45C537.708 124.45 539.952 123.958 541.606 122.973C543.26 122.028 544.559 120.237 545.504 117.599L546.39 115.059L523.887 52.3938H539.893L555.486 105.55L553.241 102.479H556.372L554.127 105.55L569.72 52.3938H585.194L562.632 117.126C561.057 121.694 559.148 125.336 556.903 128.053C554.659 130.809 551.942 132.778 548.753 133.959C545.603 135.18 541.862 135.79 537.531 135.79Z" fill="#193CB8"/>
<defs>
<clipPath id="clip0_452_2962">
<rect width="118.8" height="102.894" fill="white" transform="translate(0 20.5532)"/>
</clipPath>
</defs>
</svg>
